<?xml version="1.0"?>
<!--Icons from directory ""-->
<svg xmlns="http://www.w3.org/2000/svg" width="120" height="572" viewBox="0 0 120 572"><svg viewBox="-10 -10 60 56.8" width="120" height="52" id="0" y="0"><defs><style>.cls-1{fill:#bf1d1d;}</style></defs><title>Asset 10</title><g id="0-Layer_2" data-name="Layer 2"><g id="0-&#xB808;&#xC774;&#xC5B4;_1" data-name="&#xB808;&#xC774;&#xC5B4; 1"><path class="cls-1" d="m19.88 6.5a10.47 10.47 0 0 1 9.59 -6.5c5.78 0 9.94 4.95 10.46 10.84a10.74 10.74 0 0 1 -0.34 4.09 18.1 18.1 0 0 1 -5.52 9.2l-14.19 12.67-14-12.67a18.1 18.1 0 0 1 -5.48 -9.2 10.81 10.81 0 0 1 -0.34 -4.09c0.53-5.9 4.69-10.84 10.47-10.84a10.14 10.14 0 0 1 9.35 6.5z"/></g></g></svg><svg viewBox="-10 -10 63.09 60.99" width="120" height="52" id="11" y="52"><defs><style>.cls-1{fill:#bf1d1d;}</style></defs><title>Asset 11</title><g id="11-Layer_2" data-name="Layer 2"><g id="11-&#xB808;&#xC774;&#xC5B4;_1" data-name="&#xB808;&#xC774;&#xC5B4; 1"><path class="cls-1" d="m21.55 0 6.65 13.49l14.89 2.16-10.77 10.51 2.54 14.84-13.31-7-13.32 7 2.54-14.83-10.77-10.51 14.89-2.16z"/></g></g></svg><svg viewBox="-10 -10 63.09 60.99" width="120" height="52" id="12" y="104"><defs><style>.cls-1{fill:#ccc;}</style></defs><title>Asset 12</title><g id="12-Layer_2" data-name="Layer 2"><g id="12-&#xB808;&#xC774;&#xC5B4;_1" data-name="&#xB808;&#xC774;&#xC5B4; 1"><path class="cls-1" d="m21.55 0 6.65 13.49l14.89 2.16-10.77 10.51 2.54 14.84-13.31-7-13.32 7 2.54-14.83-10.77-10.51 14.89-2.16z"/></g></g></svg><svg viewBox="-10 -10 62.94 67.91" width="120" height="52" id="2" y="156"><defs><style>.cls-1{fill:#666;}</style></defs><title>Asset 2</title><g id="2-Layer_2" data-name="Layer 2"><g id="2-&#xB808;&#xC774;&#xC5B4;_1" data-name="&#xB808;&#xC774;&#xC5B4; 1"><path class="cls-1" d="m42.15 39.16c-5.09-2.3-5.29-12.17-5.29-12.42v-6.62a15.41 15.41 0 0 0 -9.43 -14.18 6 6 0 0 0 -11.92 0 15.41 15.41 0 0 0 -9.43 14.18v6.62c0 0.25-0.2 10.12-5.29 12.42a1.35 1.35 0 0 0 0.56 2.58h12.91a7.59 7.59 0 0 0 2 3.91 7.13 7.13 0 0 0 10.41 0 7.59 7.59 0 0 0 2 -3.91h12.92a1.35 1.35 0 0 0 0.56 -2.58zm-6.71-4.73a15 15 0 0 0 2.37 4.57h-32.68a15 15 0 0 0 2.37 -4.56zm-13.97-31.73a3.26 3.26 0 0 1 3.13 2.36 15.47 15.47 0 0 0 -6.26 0 3.26 3.26 0 0 1 3.13 -2.36zm-12.68 24.05v-6.63a12.68 12.68 0 1 1 25.37 0v6.64a28.2 28.2 0 0 0 0.57 5h-26.52a28.22 28.22 0 0 0 0.57 -5zm12.68 18.46a4.74 4.74 0 0 1 -4.47 -3.46h8.88a4.74 4.74 0 0 1 -4.44 3.46z"/></g></g></svg><svg viewBox="-10 -10 63.94 60.92" width="120" height="52" id="3" y="208"><defs><style>.cls-1{fill:#666;}</style></defs><title>Asset 3</title><g id="3-Layer_2" data-name="Layer 2"><g id="3-&#xB808;&#xC774;&#xC5B4;_1" data-name="&#xB808;&#xC774;&#xC5B4; 1"><path class="cls-1" d="m43.66 7.43a1.22 1.22 0 0 0 -0.95 -0.43h-35l-1.15-6a1.22 1.22 0 0 0 -1.2 -1h-4.14a1.22 1.22 0 1 0 0 2.45h3.13l5.27 27.55a1.22 1.22 0 0 0 1.21 1h4.33a5 5 0 1 0 1.78 0h15.9a5 5 0 1 0 1.78 0h3.73a1.22 1.22 0 1 0 0 -2.45h-26.5l-0.38-2.13h27.86a1.22 1.22 0 0 0 1.2 -1l3.38-17a1.22 1.22 0 0 0 -0.25 -1zm-7.41 28.52a2.53 2.53 0 1 1 -2.53 -2.53 2.53 2.53 0 0 1 2.53 2.53zm-17.68 0a2.53 2.53 0 1 1 -2.57 -2.53 2.53 2.53 0 0 1 2.53 2.53zm-7.57-11.95-1.64-8.55h4.64l1.39 8.55zm12.46 0h-5.59l-1.41-8.57h7zm8.15 0h-5.7v-8.55h6.93zm6.7 0h-4.21l1.23-8.57h4.67zm2.19-11h-31.61l-0.69-3.57h33z"/></g></g></svg><svg viewBox="-10 -10 65.28 62.76" width="120" height="52" id="4" y="260"><defs><style>.cls-1{fill:#666;}</style></defs><title>Asset 4</title><g id="4-Layer_2" data-name="Layer 2"><g id="4-&#xB808;&#xC774;&#xC5B4;_1" data-name="&#xB808;&#xC774;&#xC5B4; 1"><path class="cls-1" d="m38.41 29.09a25.13 25.13 0 0 0 -8.58 -3.79 14.88 14.88 0 0 0 4.87 -11.3c0-7.74-5.41-14-12.06-14s-12.07 6.3-12.07 14a14.88 14.88 0 0 0 4.88 11.3 25.13 25.13 0 0 0 -8.58 3.79c-4.43 3.12-6.87 7.34-6.87 11.91a1.81 1.81 0 0 0 1.81 1.81h41.66a1.81 1.81 0 0 0 1.81 -1.81c0-4.53-2.44-8.74-6.87-11.86zm-3.71 10.06v-3.23a1.81 1.81 0 0 0 -3.61 0v3.23h-16.9v-3.23a1.81 1.81 0 0 0 -3.61 0v3.23h-6.78a12 12 0 0 1 5.15 -7.15 23.89 23.89 0 0 1 13.69 -4 23.89 23.89 0 0 1 13.69 4 11.94 11.94 0 0 1 5.15 7.1zm-20.51-25.15c0-5.75 3.79-10.42 8.45-10.42s8.45 4.71 8.45 10.42-3.79 10.46-8.45 10.46-8.45-4.68-8.45-10.46z"/></g></g></svg><svg viewBox="-10 -10 71.33 64.79" width="120" height="52" id="5" y="312"><defs><style>.cls-1{fill:#991717;}</style></defs><title>Asset 5</title><g id="5-Layer_2" data-name="Layer 2"><g id="5-&#xB808;&#xC774;&#xC5B4;_1" data-name="&#xB808;&#xC774;&#xC5B4; 1"><path class="cls-1" d="m49.84 0h-48.34a1.5 1.5 0 0 0 -1.5 1.5v9.73a1.5 1.5 0 0 0 1.5 1.5h3.63l14.87 18.96v11.61a1.5 1.5 0 0 0 2.21 1.32l8.34-4.47a1.5 1.5 0 0 0 0.79 -1.32v-7.14l14.86-19h3.64a1.5 1.5 0 0 0 1.5 -1.5v-9.69a1.5 1.5 0 0 0 -1.5 -1.5zm-21.18 30.25a1.5 1.5 0 0 0 -0.32 0.92v6.76l-5.34 2.86v-9.62a1.5 1.5 0 0 0 -0.32 -0.92l-13.74-17.52h33.45zm19.68-20.52h-45.34v-6.73h45.34z"/></g></g></svg><svg viewBox="-10 -10 50.24 63.85" width="120" height="52" id="6" y="364"><defs><style>.cls-1{fill:#666;}</style></defs><title>Asset 6</title><g id="6-Layer_2" data-name="Layer 2"><g id="6-&#xB808;&#xC774;&#xC5B4;_1" data-name="&#xB808;&#xC774;&#xC5B4; 1"><path class="cls-1" d="m27.4 10.17h-3.24v-5.69l-4.47-4.48h-9.15l-4.46 4.48v5.69h-3.25a2.84 2.84 0 0 0 -2.83 2.83v28a2.84 2.84 0 0 0 2.83 2.83h24.57a2.84 2.84 0 0 0 2.84 -2.83v-28a2.84 2.84 0 0 0 -2.84 -2.83zm-16.86-5.69h9.15v5.69h-9.15zm16.7 36.37h-24.24v-27.68h3.08v5.05h4.46v-5.05h9.15v5.05h4.46v-5.05h3.08z"/></g></g></svg><svg viewBox="-10 -10 89.2 77.66" width="120" height="52" id="7" y="416"><defs><style>.cls-1{fill:#666;}</style></defs><title>Asset 7</title><g id="7-Layer_2" data-name="Layer 2"><g id="7-&#xB808;&#xC774;&#xC5B4;_1" data-name="&#xB808;&#xC774;&#xC5B4; 1"><path class="cls-1" d="m25.71 28.46a2.4 2.4 0 0 0 -0.43 0.13 2.27 2.27 0 0 0 -1.4 2.09 2.18 2.18 0 0 0 0 0.44 2.35 2.35 0 0 0 0.13 0.43 2.06 2.06 0 0 0 0.21 0.39 2.23 2.23 0 0 0 0.62 0.62 2.12 2.12 0 0 0 0.39 0.21 2.06 2.06 0 0 0 0.43 0.13 2.09 2.09 0 0 0 0.44 0 2.26 2.26 0 1 0 -0.44 -4.48z"/><path class="cls-1" d="m45.14 29.82a2.31 2.31 0 0 0 -0.21 -0.39 2.22 2.22 0 0 0 -0.28 -0.35 2.22 2.22 0 0 0 -0.73 -0.49 2.32 2.32 0 0 0 -0.42 -0.13 2.17 2.17 0 0 0 -0.88 0 2.41 2.41 0 0 0 -0.43 0.13 2.28 2.28 0 0 0 -0.39 0.21 2.43 2.43 0 0 0 -0.34 0.28 2.13 2.13 0 0 0 -0.28 0.35 2.19 2.19 0 0 0 -0.21 0.39 2.15 2.15 0 0 0 -0.13 0.42 2.24 2.24 0 0 0 0 0.44 2.18 2.18 0 0 0 0 0.44 2.14 2.14 0 0 0 0.13 0.43 2.19 2.19 0 0 0 0.21 0.39 2.16 2.16 0 0 0 0.28 0.34 2 2 0 0 0 0.34 0.28 2.27 2.27 0 0 0 0.81 0.34 2.09 2.09 0 0 0 0.44 0 2.16 2.16 0 0 0 0.44 0 2 2 0 0 0 0.42 -0.13 2.21 2.21 0 0 0 0.39 -0.21 2 2 0 0 0 0.34 -0.28 2.25 2.25 0 0 0 0.28 -0.34 2.31 2.31 0 0 0 0.21 -0.39 2.46 2.46 0 0 0 0.13 -0.43 2.19 2.19 0 0 0 0 -0.44 2.24 2.24 0 0 0 0 -0.44 2.51 2.51 0 0 0 -0.12 -0.42z"/><path class="cls-1" d="m68.15 30.43a33.71 33.71 0 0 0 -67.15 0.01 9.56 9.56 0 0 0 8.57 13.9h4.13a23.06 23.06 0 0 0 34.7 8.73l6.41 1.14a11.49 11.49 0 0 0 13.5 -11.31v-4.11a9.53 9.53 0 0 0 -0.16 -8.36zm-58.71 10.46a6.11 6.11 0 0 1 0.13 -12.22h1.93a24.89 24.89 0 0 0 0.09 12.22zm4.1-15.68h-4a9.51 9.51 0 0 0 -3.47 0.65 29.56 29.56 0 0 1 57 0 9.52 9.52 0 0 0 -3.47 -0.65h-4a23.06 23.06 0 0 0 -42.14 0zm34.54 23.59l-1.51-0.27a3.64 3.64 0 1 0 -5.41 4.52 19.66 19.66 0 1 1 6.92 -4.25zm13.46-0.27a7.32 7.32 0 0 1 -6 1.6l-3.37-0.6a23.1 23.1 0 0 0 3.34 -5.18h4.13a9.51 9.51 0 0 0 4.53 -1.14 7.32 7.32 0 0 1 -2.63 5.32zm4.16-13.06a6.13 6.13 0 0 1 -6.07 5.42h-2a24.89 24.89 0 0 0 0.09 -12.22h1.94a6.11 6.11 0 0 1 6.1 5.83v0.28a6.13 6.13 0 0 1 -0.06 0.69z"/></g></g></svg><svg viewBox="-10 -10 48.5 47.41" width="120" height="52" id="8" y="468"><defs><style>.cls-1{fill:#aaa;}</style></defs><title>Asset 8</title><g id="8-Layer_2" data-name="Layer 2"><g id="8-&#xB808;&#xC774;&#xC5B4;_1" data-name="&#xB808;&#xC774;&#xC5B4; 1"><path class="cls-1" d="m27.54 21.85l-7.46-7.46a10.43 10.43 0 1 0 -9.65 6.48 10.34 10.34 0 0 0 5.38 -1.53l7.12 7.12a3.26 3.26 0 1 0 4.61 -4.61zm-13.82-5.85a6.45 6.45 0 0 1 -3.28 0.92 6.52 6.52 0 1 1 6.56 -6.48 6.45 6.45 0 0 1 -0.42 2.24 6.52 6.52 0 0 1 -2.86 3.32z"/></g></g></svg><svg viewBox="-10 -10 60 56.8" width="120" height="52" id="9" y="520"><defs><style>.cls-1{fill:#ccc;}</style></defs><title>Asset 9</title><g id="9-Layer_2" data-name="Layer 2"><g id="9-&#xB808;&#xC774;&#xC5B4;_1" data-name="&#xB808;&#xC774;&#xC5B4; 1"><path class="cls-1" d="m19.88 6.5a10.47 10.47 0 0 1 9.59 -6.5c5.78 0 9.94 4.95 10.46 10.84a10.74 10.74 0 0 1 -0.34 4.09 18.1 18.1 0 0 1 -5.52 9.2l-14.19 12.67-14-12.67a18.1 18.1 0 0 1 -5.48 -9.2 10.81 10.81 0 0 1 -0.34 -4.09c0.53-5.9 4.69-10.84 10.47-10.84a10.14 10.14 0 0 1 9.35 6.5z"/></g></g></svg></svg>
